<svg data-v-423bf9ae="" xmlns="http://www.w3.org/2000/svg" viewBox="0 0 51.39664807445693 60" class="font"><!----><!----><!----><g data-v-423bf9ae="" id="2bbb8643-9643-4a12-8f8c-b5807a039dba" fill="#2C4845" transform="matrix(5.586592197418213,0,0,5.586592197418213,-10.94972038269043,-15.865921974182129)"><path d="M11.09 2.84L11.16 2.84L9.90 8.28L9.90 8.28Q9.44 10.25 8.50 11.47L8.50 11.47L8.50 11.47Q6.88 13.58 4.83 13.58L4.83 13.58L4.83 13.58Q2.79 13.58 2.13 11.47L2.13 11.47L2.13 11.47Q1.96 10.92 1.96 10.22L1.96 10.22L1.96 10.22Q1.96 9.36 2.21 8.28L2.21 8.28L2.21 8.28Q2.69 6.25 3.60 5.25L3.60 5.25L3.60 5.25Q4.18 4.62 4.74 4.28L4.74 4.28L2.80 4.28L2.82 4.21L3.58 3.12L7.36 3.12L7.34 3.19L6.58 4.28L6.58 4.28Q5.58 4.59 4.81 5.56L4.81 5.56L4.81 5.56Q3.95 6.65 3.58 8.28L3.58 8.28L3.58 8.28Q3.34 9.36 3.34 10.12L3.34 10.12L3.34 10.12Q3.34 10.60 3.43 10.94L3.43 10.94L3.43 10.94Q3.84 12.41 5.11 12.41L5.11 12.41L5.11 12.41Q6.36 12.41 7.45 10.94L7.45 10.94L7.45 10.94Q8.13 10.01 8.53 8.28L8.53 8.28L9.65 3.46L11.09 2.84Z"></path></g><!----><!----></svg>